<svg xmlns="http://www.w3.org/2000/svg" width="37.5" viewBox="0 0 37.5 37.5" height="37.5" version="1.0"><g fill="#FFAFAF"><g><g><path d="M 36.5 0.253906 L 36.5 -17.433594 C 36.5 -27.273438 28.582031 -35.191406 18.8125 -35.191406 C 8.96875 -35.191406 1.054688 -27.273438 1.054688 -17.433594 C 1.054688 -7.519531 9.371094 0.253906 18.8125 0.253906 C 22.445312 0.253906 25.53125 -0.800781 28.402344 -2.542969 C 23.0625 -7.335938 21.9375 -12.53125 21.644531 -14.707031 C 21.027344 -13.800781 19.9375 -13.363281 18.8125 -13.363281 C 16.632812 -13.363281 14.816406 -15.179688 14.816406 -17.433594 C 14.816406 -19.539062 16.632812 -21.429688 18.8125 -21.429688 C 21.066406 -21.429688 22.878906 -19.539062 22.734375 -17.289062 C 22.589844 -9.042969 28.582031 -1.5625 36.5 0.253906 Z M 36.5 0.253906" transform="translate(-.574 36.056)"/></g></g></g></svg>